<?xml version="1.0" encoding="UTF-8"?><svg id="Laag_1" xmlns="http://www.w3.org/2000/svg" viewBox="0 0 1366 784"><defs><style>.cls-1{fill:#b7b7b7;}.cls-2{fill:#bfd3e1;}.cls-3{fill:#fff;}.cls-4{fill:#6fa461;}.cls-5{fill:#c6b691;}.cls-6{fill:#b7a686;}.cls-7{fill:#e58f4d;}.cls-8{fill:#333;}.cls-9{fill:#9d9d9c;}.cls-10{fill:#d8d8d3;}.cls-11{fill:#3c3c3b;}.cls-12{fill:#706f6f;}.cls-13{fill:#e94c4d;}.cls-14{fill:#56674d;}.cls-15{fill:#3b4c43;}.cls-16{fill:#666;}.cls-17{fill:#1d1d1b;}.cls-18{fill:none;stroke:#706f6f;stroke-miterlimit:10;stroke-width:68px;}</style></defs><rect class="cls-2" x="-7.6" y="-3.45" width="1373.6" height="787.45"/><path class="cls-15" d="M-7.6,207.49c15.14-7.51,35.29-20.02,51.96-40.8,26.15-32.58,31.48-70.18,37.41-69.18,6.81,1.15-3.62,50.1,14.96,58.53,11.23,5.09,21.32-9.91,33.67-7.1,33.4,7.61,22.51,131.73,43.02,134.8,15.52,2.33,27.42-67.88,59.85-70.95,30.68-2.91,42.42,57.78,80.43,62.08,51.35,5.81,76.27-99.73,130.93-101.1,61.61-1.55,69.73,131.55,153.38,152.54,91.8,23.04,158.56-118.08,265.6-97.56,77.64,14.89,93.29,98.87,147.76,90.46,38.58-5.95,61.88-53.04,108.48-147.22,38.53-77.86,57.78-138.95,69.21-136.58,7.8,1.62,4.65,31.25,20.57,101.1,3.49,15.3,9.26,38.54,29.93,54.99,5.8,4.61,17.81,14.17,26.19,10.64,12.08-5.09,3.4-31.81,11.22-81.59,6.07-38.64,15.66-50.26,24.32-56.76,7.6-5.71,23.43-14.17,31.8-8.87,19.75,12.51-18.03,90.2-9.35,94.01,3.34,1.47,13.47-8.1,42.26-53.84v472.44c-457.87-6.26-915.73-12.52-1373.6-18.77V207.49Z"/><path class="cls-4" d="M1366,405.96c-45.52,5.9-117.75,15.2-206.86,26.46-194.86,24.61-222.76,27.26-295.53,37.98-215.83,31.81-189.38,40.82-265.6,43.83-97.56,3.85-183.58-12.96-351.64-46.75-107.17-21.54-194.4-42.94-253.97-58.44v374.96H1366V405.96Z"/><path class="cls-3" d="M829.23,136.54c224.48,27.09,289.23,12.94,296.22-10.64,6.1-20.6-27.87-62-62.08-65.63-25.99-2.75-35.56,18.05-62.08,14.19-31.33-4.57-32.07-35.65-63.85-46.12-37.38-12.31-95.09,11.32-109.97,54.99-7.5,22.02-1.95,42.77,1.77,53.21Z"/><path class="cls-3" d="M646.45,156.42c112.24,13.55,144.62,6.47,148.11-5.32,3.05-10.3-13.93-31-31.04-32.81-13-1.38-17.78,9.03-31.04,7.09-15.66-2.28-16.03-17.82-31.93-23.06-18.69-6.16-47.55,5.66-54.99,27.49-3.75,11.01-.97,21.39,.89,26.61Z"/><path class="cls-14" d="M1366,245.56c-4.71,.07-11.74,.56-19.81,2.73-28.5,7.67-35.08,26.91-69.21,54.99-23.35,19.21-36.98,30.42-56.11,30.15-19.65-.28-25.8-12.4-41.15-8.87-21.39,4.92-19.64,30.83-39.28,37.25-22.98,7.51-37.53-23.99-71.08-24.83-30.47-.77-62.74,24.11-74.82,54.99-13.01,33.26-2.35,72.87,22.45,92.23,29.09,22.72,55.78,.5,140.28,21.28,18.33,4.51,27.15,8.03,44.89,8.87,39.31,1.85,55.42-12.66,80.43-12.42,20.22,.19,48.81,10.05,83.41,54.99-.61-32.74-.99-65.85-1.11-99.33-.18-49.88,.21-98.96,1.11-147.22v-64.81Z"/><path class="cls-14" d="M-7.6,267.29c4.47,.07,11.13,.56,18.79,2.73,27.02,7.67,33.26,26.91,65.63,54.99,22.15,19.21,35.07,30.42,53.21,30.15,18.64-.28,24.47-12.4,39.02-8.87,20.29,4.92,18.63,30.83,37.25,37.25,21.79,7.51,35.59-23.99,67.4-24.83,28.9-.77,59.5,24.11,70.95,54.99,12.34,33.26,2.23,72.87-21.29,92.23-27.59,22.72-52.89,.5-133.03,21.28-17.38,4.51-25.75,8.03-42.57,8.87-37.28,1.85-52.55-12.66-76.27-12.42-19.18,.19-46.29,10.05-79.1,54.99,.58-32.74,.94-65.85,1.05-99.33,.17-49.88-.2-98.96-1.05-147.22v-64.81Z"/><path class="cls-8" d="M409.06,581.52c0,15.63,36.97,28.07,70.24,39.18,87.41,29.18,162.94,19.42,203.7,19.42,151.29,0,273.94-26.24,273.94-58.6,0-1.03-.13-2.05-.37-3.07H409.43c-.25,1.02-.37,2.04-.37,3.07Z"/><path class="cls-8" d="M956.94,576.3c0-15.63-36.97-28.07-70.24-39.18-87.41-29.18-162.94-19.42-203.7-19.42-151.29,0-273.94,26.24-273.94,58.6,0,1.03,.13,2.05,.37,3.07H956.57c.25-1.02,.37-2.04,.37-3.07Z"/><path class="cls-13" d="M517.77,671.71c-2.73-.36-64.69-8.99-66.14-27.09-.92-11.6,23.94-15.41,38.25-43.83,10.16-20.18,7.53-37.93,14.34-39.04,8.88-1.46,19.2,27.67,23.11,26.3,4.98-1.75-8.65-50.14-3.98-51.79,4.6-1.64,16.88,45.72,37.45,47.01,22.02,1.39,36.69-51.07,53.39-47.81,13.78,2.69,9.46,39.55,27.89,46.22,18.85,6.82,38.07-26.4,58.97-19.12,14.74,5.14,10.76,23.63,25.5,30.28,24.61,11.11,54.07-32.18,78.89-21.51,14.81,6.36,8.3,23.49,24.7,35.86,29.15,21.98,77.72-11.04,90.84,5.58,7.82,9.9-2.62,30.26-4.78,34.26-39.24,72.59-214.18,49.27-398.42,24.7Z"/><path class="cls-7" d="M610.11,697.73c-56.28-12.43-70.26-28.63-74.32-41.93-4.9-16.06,1.19-38.94,12.39-42.88,7.98-2.8,12.31,6.2,23.82,5.72,20.69-.86,29.37-30.88,40.02-28.59,11.53,2.48,6,38.7,19.89,43.82,14.93,5.5,31.76-32.48,58.24-29.53,13.82,1.54,14.13,12.43,31.44,16.2,21.12,4.6,31.09-9.33,48.6-8.58,28.5,1.23,61.55,40.63,55.27,64.79-10.39,39.93-135.61,38.58-215.34,20.96Z"/><path class="cls-18" d="M829.16,729.55c12.15,27.39,24.3,54.79,36.45,82.18"/><path class="cls-18" d="M532.04,726.55c-12.15,27.39-24.3,54.79-36.45,82.18"/><path class="cls-9" d="M439.2,598.26c46.48-22.76,100.38-48.17,147.47-69.84,7.13-3.13,14.35-6.1,21.87-8.53-12.04,10.11-25.27,18.23-38.35,26.79-19.48,12.68-58.82,37.97-78.45,50.42-13.11,8.33-26.27,16.59-39.46,24.78l-13.08-23.62h0Z"/><path class="cls-9" d="M497.72,611.23c37.49-24.91,75.78-48.65,114.25-72.05,13-7.76,25.61-16.48,40.33-21.12-6.26,10.07-14.05,17.98-22.32,26.03-13.29,13.14-26.89,26.45-40.29,39.41-21.61,20.8-43.32,41.54-65.55,61.65l-26.43-33.92h0Z"/><path class="cls-9" d="M593.53,625c20.94-27.73,42.85-54.79,64.97-81.61,6.94-7.99,15.26-20.14,24.5-25.69,.17,6.28-1.02,12.09-2.71,17.93-4.78,16.24-10.09,34.04-15.03,50.11-6.88,22.11-13.83,44.23-21.43,66.07l-50.3-26.8h0Z"/><path class="cls-9" d="M687.02,643.54c2.16-20.78,5.44-42.49,8.66-63.22,1.76-10.54,3.43-21.09,5.3-31.63,1.15-5.55,2.81-18.54,4.94-23.75,1-2.65,2.23-5.3,4.18-7.97,3.78,4.81,5.72,9.97,7.03,15.59,3.49,15.18,7.13,31.89,10.31,47.03,1.84,9.19,4.52,22.27,6.18,31.37,1.94,10.46,3.83,20.92,5.39,31.39l-51.99,1.2h0Z"/><path class="cls-9" d="M788.4,658.4c-6.93-19.91-16.93-50.33-23.64-70.64-3.79-11.67-13.6-41.92-17.2-53.25-1.94-5.9-3.73-11.88-4.51-18.37,8.23,7.54,16.57,20.6,23.37,29.4,11.04,14.96,33.1,45.15,43.97,60.22,6.31,8.86,15.48,21.49,21.63,30.29l-43.61,22.34h0Z"/><path class="cls-9" d="M872.73,635.92c-27.48-30.53-53.56-62.38-79.28-94.43-6.17-7.54-12.05-15.23-15.48-24.55,9.24,3.63,16.81,9.67,24.21,16,12.08,10.1,24.31,20.47,36.22,30.72,19.09,16.56,38.12,33.23,56.48,50.58l-22.15,21.68h0Z"/><polygon class="cls-9" points="944.36 609.68 814.9 521.31 957.61 586.15 944.36 609.68 944.36 609.68"/><path class="cls-9" d="M409.03,577.06c33.75-13,76.03-28.38,110.24-40.71,12.27-4.46,24.54-8.95,37.39-12.07-19.16,12.34-49.02,25.88-69.43,36.57-12.3,6.07-40.69,20.3-52.67,26.04-5.86,2.86-11.73,5.72-17.62,8.53l-7.92-18.37h0Z"/><path class="cls-16" d="M683,634.9c-146.48,0-266.11-24.59-273.57-55.53h-.37c0,106.42,122.65,192.69,273.94,192.69s273.94-86.27,273.94-192.69h-.37c-7.46,30.94-127.09,55.53-273.57,55.53Z"/><path class="cls-11" d="M818.86,753.02c19.43-3.98,46.38-20.7,44.79-24.46-1.1-2.59-16,.59-27.16,4.5-14.99,5.26-32.26,15-31.89,19.02,.24,2.62,7.91,2.24,14.25,.94Z"/><path class="cls-11" d="M507.74,732.21c15.55,12.31,45.69,22.18,47.54,18.55,1.28-2.51-10.74-11.87-20.92-17.9-13.67-8.09-32.24-15.05-35.07-12.17-1.85,1.87,3.37,7.5,8.45,11.51Z"/><circle class="cls-11" cx="686.33" cy="679.25" r="26.68"/><path class="cls-12" d="M704.2,673.47c-5.08-3.41-14.78,3.57-14.29,7.24,.51,3.83,12.6,7.71,16.2,3.24,2.18-2.7,1.2-8.4-1.91-10.48Z"/><g><path class="cls-17" d="M637.43,719.49c.45,.17,.85,.46,1.08,.9,0,.2,0,.4,0,.59-.06,4.2,1.52,7,3.29,7.92,1.01,.52,1.84-.34,1.89-2.15,.03-1.12-.09-2.29-2.51-7.06-1.38-2.7-1.81-4.54-1.78-6.53,.05-3.44,2.53-7.23,6.07-7.34,3.02-.03,4.15,2.37,4.08,4.71-.05,1.51-.67,2.68-1.3,3.02-1.42-1.84-2.43-2.64-3.45-2.74-.61-.05-1.13,.56-1.15,1.57-.03,1.13,.41,2.5,1.91,5.78,2.17,4.88,2.51,6.72,2.44,8.93-.13,4.37-3.17,8.25-7.53,5.39-3.98-2.63-5.88-6.71-5.9-9.68,0-2.01,1.01-3.96,2.88-3.33Z"/><path class="cls-17" d="M651.7,735.28c-1.58-.63-2.66-2.96-2.55-6.46,.18-5.66,3.82-11.19,6.63-10.95,.39,.05,.59,.16,.72,.39,.05-.82,.11-1.63,.16-2.45,.24-.35,.6-.49,1-.45,1.91,.18,2.89,2.29,2.85,3.84-.02,.57-.13,1.66-.39,2.86-1.15,5.38-1.6,7.98-1.63,9.12-.03,.87,.08,1.03,.31,1.08,.57,.14,2.09-1.13,4.02-4.87,.6,.1,1.04,.76,1.02,1.57-.07,3.07-5.01,9.14-7.04,8.33-1.24-.41-2-1.44-1.91-4.11,.01-.46,.06-.99,.14-1.6-1.02,3.54-2.33,4.07-3.3,3.69Zm4.57-14.28c-1.45,1.14-2.89,4.25-2.99,7.38-.05,1.52,.28,1.78,.67,1.89,.39,.12,.8-.19,1.15-.72,.39-2.82,.78-5.67,1.17-8.55Z"/><path class="cls-17" d="M668.08,720.19c.88,.03,2.08-.03,2.45-.14,.33,.45,.52,1.31,.5,2.02-.03,1.8-.77,3.11-1.72,3.01-.66-.06-1.26-.17-2.08-.5-.88,5-1.18,7.52-1.19,8.21-.02,1.11,.13,1.64,.74,1.75,1.18,.21,3.22-1.7,5.25-6.08,.55,.05,1.14,.77,1.12,1.72-.03,2.87-4.63,10.82-7.96,9.96-2.22-.51-3.65-2.71-3.54-6.8,.04-1.3,.4-3.92,1.63-9.49-.56-.17-1.04-.33-1.02-1.31,.04-1.38,.69-2.56,1.85-2.49,1.57-5.79,3.16-10.11,5.04-10.08,.62,.01,1.09,.49,1.07,1.58-.03,1.46-1.09,3.78-2.16,8.63Z"/><path class="cls-17" d="M670.75,732.82c.14-7.07,3.77-14.15,6.52-14.11,1.96,.06,3.03,1.67,3.02,5.07-.02,4.07-1.46,7.24-5.44,8.41-.03,2.16,.22,3.38,1.35,3.48,1.98,.17,4.57-2.52,6.23-6.74,.69,.06,1.1,.84,1.1,1.62,.01,3.62-4.91,11.29-8.74,10.81-2.87-.33-4.12-3.46-4.03-8.54Zm5.75-9.08c-.4-.02-1.19,1.58-1.44,4.92,1.62-.37,1.98-1.85,2-3.3,0-1.01-.21-1.6-.56-1.62Z"/><path class="cls-17" d="M693.99,720.66c.88-.09,2.08-.29,2.45-.46,.35,.41,.56,1.25,.57,1.96,.03,1.8-.66,3.24-1.61,3.31-.66,.04-1.26,.04-2.1-.16-.71,5.34-.92,8.06-.91,8.78,.01,1.16,.19,1.68,.8,1.63,1.19-.09,3.17-2.61,5.04-7.35,.54-.05,1.16,.54,1.18,1.48,.07,2.73-4.22,11.87-7.62,12.16-2.26,.18-3.8-1.72-3.82-6.19,0-1.41,.28-4.39,1.33-10.58-.57-.08-1.06-.17-1.07-1.24,0-1.51,.61-2.88,1.79-2.95,1.38-6.39,2.82-10.94,4.7-10.96,.62,0,1.1,.46,1.12,1.56,.02,1.48-.95,3.89-1.86,9.02Z"/><path class="cls-17" d="M697.87,727.36c-.04-2.81,2.4-7.95,4.15-8.06,1.31-.1,1.44,1.03,1.49,2.82,.03,1.19-.41,3.17-.88,5.18-.73,3.29-1.07,4.85-1.05,5.91,0,.51,.16,.68,.42,.63,.4-.06,1.67-1.79,3.46-6.4,.54-.08,1.13,.54,1.15,1.44,.09,2.76-4.27,11.47-6.97,11.96-1.72,.29-2.32-.88-2.36-3.49-.04-2.09,.25-4.08,.92-7.09-.25-.87-.32-1.96-.34-2.9Zm4.92-20.3c1.12,0,2.43,1.98,2.47,3.37,.03,1.09-.46,2.86-1.75,5.65-1.1,.08-1.93-1.22-1.98-3.91-.08-3.76,.37-5.11,1.26-5.11Z"/><path class="cls-17" d="M719.87,716.74c1.28-.2,1.93,1,1.97,2.46,.03,.98-.18,2.34-.62,4.08-.44,1.79-1.43,5.52-1.4,6.51,.01,.43,.16,.53,.4,.44,.5-.17,2.18-2.89,3.95-7.04,.52-.16,1.07,.12,1.09,.83,.05,2.06-4.46,10.84-7,12.04-1.63,.67-2.22-.2-2.3-2.46-.09-2.75,1.4-8.04,1.37-8.9-.01-.32-.12-.45-.35-.4-.25,.06-1.2,1.13-2.21,3.65-.29,3.3-.49,5.74-.49,8.62-.27,.52-.51,.82-1.1,1.01-1.58,.54-2.69-.15-2.79-2.76-.05-1.66,.33-4.35,.77-6.53,.2-1,.42-2.04,.41-2.47-.01-.39-.13-.5-.35-.45-.26,.05-.91,.81-1.94,3.41-.3,3.47-.49,6.01-.48,9.04-.27,.52-.47,.71-1.12,.88-1.6,.43-2.84-1.73-2.94-4.47-.04-1.73,.21-4.17,.64-6.33-.25-.83-.33-1.86-.36-2.77-.07-2.7,2.11-6.28,3.85-6.46,.82-.09,1.23,.38,1.27,1.69,.03,1.09-.12,2.64-.73,5.08,1.9-5.88,3.26-7.21,4.49-7.4,1.06-.14,1.68,.84,1.73,2.19,.03,1.07,.04,2.01-.57,4.14,2.13-5.58,3.6-7.42,4.82-7.63Z"/><path class="cls-17" d="M723.16,726.93c-.18-5.72,3.04-11.98,5.7-12.36,1.89-.36,2.93,.42,2.95,2.54,.02,2.53-1.23,5.03-4.87,7.59,.04,1.55,.3,2.3,1.34,1.82,1.81-.85,4.06-3.89,5.55-6.99,.63-.23,1,.07,1,.51-.03,1.86-4.24,9.13-7.66,11.18-2.59,1.43-3.89-.28-4.01-4.29Zm5.1-8.74c-.38,.1-1.08,1.44-1.21,3.91,1.5-.86,1.8-1.99,1.78-2.97-.01-.69-.24-1.02-.57-.93Z"/></g><g><path class="cls-5" d="M126.31,547.11c19.32-9.32,36.19-15.65,44.13-18.32,41.33-13.9,53.8-.22,88.26-13.32,2.17-.83,45.99-17.81,44.13-33.31-3.18-26.5-138.61-37.4-169.03-5.83-3.57,3.71-12.2,14.74-28.31,23.32-13.26,7.06-18.45,5.45-24.15,11.66-12.66,13.79-8.96,45.52,4.16,51.63,7.57,3.52,14.59-3.18,40.8-15.82Z"/><path class="cls-6" d="M138.95,485.49c35.99,20.84,56.75-2.07,125.55,2.5,20.4,1.35,34.73,4.44,37.82-2.5,3.87-8.71-12.67-27.23-24.2-36.64-55.85-45.53-160.78-12.92-162.39,12.91-.62,9.92,14.04,18.41,23.23,23.73Z"/><ellipse class="cls-1" cx="209.31" cy="454.68" rx="174.61" ry="28.31"/><ellipse class="cls-10" cx="209.31" cy="450.52" rx="174.61" ry="24.15"/><path class="cls-8" d="M0,631.88c39.46-15.9,78.92-31.8,118.38-47.7-11.71-27.54-23.42-55.09-35.14-82.63-27.75,8.88-55.5,17.76-83.25,26.65v103.69Z"/><ellipse class="cls-1" cx="208.78" cy="448.17" rx="157.34" ry="16.8"/></g><path class="cls-12" d="M688.7,520.65c-59.84,1.39-120.24,3.02-179.08,14.67-11.62,2.46-23.08,5.5-34.32,9.22-11.13,3.74-22.52,8.05-33.34,12.62-7.78,3.45-15.49,6.99-21.77,12.34-1.87,1.62-3.3,3.39-3.93,4.83-.62,1.41-.58,2.26-.11,3.65,.79,1.66,1.98,3.28,3.54,4.64,3.8,3.46,8.67,6.25,13.44,8.63,5.07,2.52,10.45,4.73,15.92,6.77,73.14,26.74,150.83,31.22,228.42,29.91,29.81,.11,59.79,.39,89.54-1.65,53.14-3.39,106.55-11.91,156.76-29.94,8.75-3.56,17.76-7.07,24.1-13.88,3.54-3.93,1.91-7.32-1.83-10.96-7.89-7.33-19.13-12.36-29.21-17.01-27.02-12.43-55.41-21.48-84.77-26.66-47.31-8.58-95.39-7.86-143.37-7.17h0Zm-.12-8.58c80.79-1.88,157.36-1.6,232.98,31.51,11.62,5,23.69,9.9,33.4,18.53,8.62,7.63,11.55,18.91,3.58,28.84-10.58,12.94-31.4,20.05-46.63,25.57-98.56,33.77-204.43,37.14-307.34,30.59-12.19-.9-24.36-2.06-36.48-3.65-42.56-5.39-84.66-15.54-124.53-31.41-13.58-5.84-34.8-14.73-40.21-29.53-6.16-20.2,19.35-30.58,33.92-36.68,22.84-8.82,46.23-16.36,70.31-20.79,59.74-10.43,120.55-11.76,181.01-12.96h0Z"/></svg>