<?xml version="1.0" encoding="UTF-8"?><svg id="a" xmlns="http://www.w3.org/2000/svg" viewBox="0 0 1500 1000"><defs><style>.b{fill:#bfd3e1;}.c{fill:#fff;}.d{fill:#6fa461;}.e{fill:#56674d;}.f{fill:#3b4c43;}</style></defs><rect class="b" x="0" width="1500" height="1000"/><path class="f" d="M0,242.91c16.53-8.65,38.54-23.06,56.74-46.98,28.55-37.51,34.37-80.82,40.85-79.66,7.44,1.33-3.96,57.69,16.34,67.4,12.26,5.86,23.28-11.41,36.77-8.17,36.48,8.76,24.58,151.69,46.98,155.23,16.95,2.68,29.95-78.17,65.36-81.7,33.5-3.35,46.33,66.54,87.83,71.49,56.07,6.69,83.29-114.84,142.98-116.43,67.28-1.79,76.15,151.49,167.49,175.66,100.25,26.53,173.15-135.98,290.04-112.34,84.78,17.14,101.87,113.85,161.36,104.17,42.13-6.86,67.57-61.08,118.47-169.53,42.07-89.65,63.1-160.01,75.57-157.28,8.51,1.86,5.07,35.99,22.47,116.43,3.81,17.62,10.12,44.38,32.68,63.32,6.33,5.31,19.45,16.32,28.6,12.26,13.19-5.86,3.71-36.63,12.26-93.96,6.63-44.5,17.1-57.88,26.55-65.36,8.3-6.57,25.58-16.32,34.72-10.21,21.57,14.41-19.69,103.87-10.21,108.26,3.65,1.69,14.71-9.33,46.15-62V657.55C1000,650.35,500,643.14,0,635.93V242.91Z"/><path class="d" d="M1500,471.45c-49.71,8.24-128.58,21.26-225.89,36.99-212.8,34.41-243.26,38.11-322.72,53.11-235.69,44.48-206.81,57.07-290.04,61.28-106.53,5.38-200.47-18.13-384-65.36C160.31,527.35,65.05,497.43,0,475.77V1000H1500V471.45Z"/><path class="c" d="M963.64,161.21c258.5,31.2,333.07,14.91,341.11-12.26,7.02-23.73-32.09-71.4-71.49-75.57-29.93-3.17-40.95,20.79-71.49,16.34-36.07-5.26-36.93-41.05-73.53-53.11-43.04-14.18-109.5,13.03-126.64,63.32-8.64,25.36-2.25,49.26,2.04,61.28Z"/><path class="c" d="M753.16,184.1c129.25,15.6,166.53,7.45,170.55-6.13,3.51-11.86-16.05-35.7-35.74-37.79-14.97-1.59-20.47,10.4-35.74,8.17-18.04-2.63-18.46-20.52-36.77-26.55-21.52-7.09-54.75,6.52-63.32,31.66-4.32,12.68-1.12,24.63,1.02,30.64Z"/><path class="e" d="M1500,286.75c-5.15,.08-12.82,.64-21.64,3.15-31.12,8.84-38.31,30.99-75.57,63.32-25.5,22.12-40.39,35.03-61.28,34.72-21.46-.32-28.18-14.28-44.94-10.21-23.36,5.67-21.45,35.5-42.89,42.89-25.09,8.65-40.99-27.62-77.62-28.6-33.28-.88-68.51,27.76-81.7,63.32-14.21,38.3-2.57,83.91,24.51,106.21,31.77,26.16,60.91,.58,153.19,24.51,20.01,5.19,29.65,9.25,49.02,10.21,42.93,2.13,60.52-14.57,87.83-14.3,22.08,.22,53.3,11.58,91.08,63.32-.67-37.7-1.08-75.83-1.21-114.38-.2-57.44,.23-113.96,1.21-169.53v-74.64Z"/><path class="e" d="M0,311.77c5.15,.08,12.82,.64,21.64,3.15,31.12,8.84,38.31,30.99,75.57,63.32,25.5,22.12,40.39,35.03,61.28,34.72,21.46-.32,28.18-14.28,44.94-10.21,23.36,5.67,21.45,35.5,42.89,42.89,25.09,8.65,40.99-27.62,77.62-28.6,33.28-.88,68.51,27.76,81.7,63.32,14.21,38.3,2.57,83.91-24.51,106.21-31.77,26.16-60.91,.58-153.19,24.51-20.01,5.19-29.65,9.25-49.02,10.21-42.93,2.13-60.52-14.57-87.83-14.3-22.08,.22-53.3,11.58-91.08,63.32,.67-37.7,1.08-75.83,1.21-114.38C1.41,498.5,.99,441.98,0,386.4v-74.64Z"/></svg>