<?xml version="1.0" encoding="UTF-8"?><svg id="a" xmlns="http://www.w3.org/2000/svg" viewBox="0 0 1500 1000"><defs><style>.b{fill:#e58f4d;}.c{fill:#333;}.d{fill:#9d9d9c;}.e{fill:#3c3c3b;}.f{fill:#706f6f;}.g{stroke-width:19px;}.g,.h{fill:none;stroke:#706f6f;stroke-miterlimit:10;}.i{fill:#e94c4d;}.j{fill:#666;}.k{fill:#1d1d1b;}.h{stroke-width:68px;}</style></defs><path class="c" d="M173.51,543.25c0,33.51,79.25,60.18,150.58,84,187.38,62.55,349.28,41.62,436.66,41.62,324.32,0,587.23-56.24,587.23-125.62,0-2.21-.27-4.4-.8-6.58H174.31c-.53,2.18-.8,4.37-.8,6.58Z"/><path class="c" d="M1347.98,532.05c0-33.51-79.25-60.18-150.58-84-187.38-62.55-349.28-41.62-436.66-41.62-324.32,0-587.23,56.24-587.23,125.62,0,2.21,.27,4.4,.8,6.58H1347.18c.53-2.18,.8-4.37,.8-6.58Z"/><path class="i" d="M406.55,736.58c-5.85-.78-138.68-19.27-141.77-58.08-1.98-24.87,51.32-33.03,81.99-93.95,21.78-43.26,16.13-81.3,30.75-83.7,19.03-3.12,41.16,59.32,49.54,56.37,10.67-3.76-18.54-107.47-8.54-111.03,9.86-3.51,36.19,98,80.28,100.78,47.21,2.98,78.65-109.48,114.44-102.49,29.54,5.78,20.28,84.77,59.78,99.07,40.4,14.62,81.61-56.6,126.4-40.99,31.6,11.01,23.07,50.64,54.66,64.91,52.76,23.82,115.92-68.97,169.1-46.12,31.74,13.64,17.8,50.36,52.95,76.87,62.49,47.12,166.61-23.67,194.73,11.96,16.76,21.23-5.61,64.87-10.25,73.45-84.11,155.61-459.12,105.61-854.06,52.95Z"/><path class="b" d="M604.49,792.36c-120.64-26.65-150.62-61.36-159.32-89.87-10.51-34.43,2.54-83.48,26.55-91.91,17.1-6.01,26.38,13.29,51.06,12.26,44.36-1.85,62.97-66.19,85.79-61.28,24.72,5.32,12.85,82.95,42.64,93.93,32.01,11.8,68.09-69.62,124.85-63.29,29.62,3.3,30.28,26.64,67.4,34.72,45.28,9.86,66.64-20,104.17-18.38,61.09,2.63,131.94,87.1,118.47,138.89-22.27,85.59-290.69,82.69-461.62,44.94Z"/><path class="h" d="M1074.07,860.58c26.04,58.72,52.09,117.45,78.13,176.17"/><path class="h" d="M437.15,854.15c-26.04,58.72-52.09,117.45-78.13,176.17"/><polygon class="d" points="239.55 581.7 601.14 411.13 264.75 627.19 239.55 581.7 239.55 581.7"/><polygon class="d" points="335.66 618.12 694.95 407.22 364.73 661.24 335.66 618.12 335.66 618.12"/><polygon class="d" points="563.8 652.99 760.74 406.43 617.6 687.65 563.8 652.99 563.8 652.99"/><polygon class="d" points="799.09 675.52 818.83 404.86 851.08 674.31 799.09 675.52 799.09 675.52"/><polygon class="d" points="1010.29 695.96 889.45 403.1 1056.56 672.25 1010.29 695.96 1010.29 695.96"/><polygon class="d" points="1172.63 654.8 964.34 404.81 1209.79 618.43 1172.63 654.8 1172.63 654.8"/><polygon class="d" points="1322 600.8 1057.14 414.35 1348.42 556.01 1322 600.8 1322 600.8"/><polygon class="d" points="171.65 529.5 489.93 420.56 192.25 577.25 171.65 529.5 171.65 529.5"/><path class="j" d="M760.74,657.67c-314,0-570.44-52.72-586.44-119.04h-.8c0,228.12,262.91,413.05,587.23,413.05s587.23-184.93,587.23-413.05h-.8c-16,66.32-272.44,119.04-586.44,119.04Z"/><path class="g" d="M406.94,431.79c50.23-11.92,121.64-25.23,387.52-26.05,226.65-.7,341.72,8.46,468.59,65.27,49.07,21.97,85.32,38.66,84.92,61.05-1.17,65.47-315.02,125.82-587.23,125.62-274.33-.21-586.48-61.98-587.23-125.62-.53-44.74,152.98-81.17,233.43-100.26Z"/><path class="e" d="M1051.99,910.89c41.66-8.54,99.42-44.38,96.02-52.43-2.35-5.56-34.29,1.26-58.22,9.65-32.14,11.27-69.15,32.15-68.35,40.76,.52,5.61,16.95,4.8,30.55,2.02Z"/><path class="e" d="M385.05,866.28c33.34,26.4,97.94,47.55,101.92,39.77,2.75-5.38-23.03-25.44-44.85-38.36-29.31-17.35-69.1-32.25-75.18-26.09-3.96,4.01,7.23,16.07,18.11,24.68Z"/><circle class="e" cx="767.89" cy="746.6" r="57.19"/><path class="f" d="M798.53,731.09c-10.89-7.31-31.69,7.64-30.64,15.51,1.1,8.2,27,16.52,34.72,6.96,4.68-5.79,2.57-18-4.08-22.47Z"/><g><path class="k" d="M663.06,839c.97,.35,1.82,.99,2.32,1.92,0,.42-.01,.85-.02,1.27-.13,9.01,3.25,15,7.05,16.98,2.16,1.1,3.95-.73,4.06-4.6,.06-2.4-.2-4.92-5.38-15.15-2.96-5.79-3.88-9.74-3.81-13.99,.11-7.38,5.42-15.48,13.01-15.73,6.48-.07,8.9,5.09,8.74,10.1-.1,3.24-1.44,5.76-2.78,6.48-3.04-3.95-5.2-5.66-7.4-5.87-1.31-.11-2.42,1.21-2.48,3.37-.07,2.42,.87,5.36,4.1,12.39,4.66,10.46,5.37,14.41,5.22,19.15-.28,9.38-6.78,17.69-16.14,11.55-8.53-5.63-12.61-14.38-12.66-20.75,0-4.31,2.17-8.5,6.17-7.13Z"/><path class="k" d="M693.66,872.86c-3.38-1.36-5.71-6.34-5.47-13.85,.38-12.13,8.19-23.99,14.2-23.47,.84,.11,1.25,.35,1.54,.84,.12-1.75,.23-3.49,.35-5.24,.51-.77,1.3-1.05,2.14-.97,4.09,.37,6.2,4.91,6.1,8.23-.04,1.23-.29,3.57-.84,6.13-2.46,11.53-3.43,17.11-3.5,19.55-.06,1.86,.18,2.2,.66,2.32,1.21,.29,4.48-2.42,8.61-10.44,1.28,.21,2.22,1.62,2.18,3.37-.16,6.57-10.74,19.6-15.08,17.86-2.66-.87-4.28-3.09-4.1-8.81,.03-.99,.13-2.13,.29-3.44-2.18,7.6-5,8.72-7.07,7.91Zm9.79-30.62c-3.1,2.45-6.2,9.12-6.42,15.83-.1,3.24,.6,3.81,1.44,4.06,.84,.25,1.71-.4,2.47-1.55,.84-6.05,1.68-12.16,2.51-18.33Z"/><path class="k" d="M728.76,840.52c1.89,.06,4.45-.06,5.25-.31,.71,.96,1.11,2.81,1.08,4.33-.07,3.85-1.66,6.66-3.68,6.45-1.41-.14-2.69-.38-4.45-1.07-1.9,10.72-2.52,16.12-2.56,17.61-.06,2.37,.29,3.52,1.58,3.74,2.52,.44,6.91-3.65,11.26-13.04,1.17,.11,2.44,1.65,2.41,3.7-.06,6.16-9.92,23.19-17.06,21.36-4.76-1.09-7.84-5.82-7.59-14.58,.07-2.79,.85-8.41,3.49-20.34-1.21-.36-2.24-.7-2.18-2.81,.08-2.97,1.49-5.49,3.97-5.34,3.36-12.41,6.76-21.68,10.8-21.6,1.32,.03,2.33,1.06,2.29,3.38-.06,3.12-2.33,8.11-4.63,18.51Z"/><path class="k" d="M734.49,867.59c.3-15.15,8.08-30.34,13.97-30.26,4.21,.13,6.51,3.59,6.47,10.88-.05,8.71-3.12,15.52-11.67,18.03-.06,4.62,.46,7.25,2.9,7.46,4.24,.37,9.8-5.41,13.35-14.45,1.49,.13,2.35,1.8,2.35,3.47,.03,7.77-10.53,24.2-18.73,23.16-6.15-.72-8.84-7.41-8.64-18.3Zm12.33-19.47c-.86-.04-2.56,3.38-3.09,10.54,3.47-.79,4.25-3.98,4.28-7.07,.02-2.17-.46-3.43-1.19-3.47Z"/><path class="k" d="M784.31,841.51c1.9-.19,4.46-.63,5.24-.98,.75,.88,1.2,2.68,1.23,4.21,.06,3.86-1.42,6.94-3.45,7.09-1.42,.1-2.71,.08-4.5-.34-1.53,11.44-1.98,17.28-1.96,18.83,.03,2.48,.41,3.59,1.72,3.49,2.56-.19,6.8-5.59,10.81-15.75,1.17-.11,2.49,1.16,2.53,3.17,.15,5.84-9.05,25.44-16.33,26.07-4.85,.39-8.15-3.7-8.19-13.28-.02-3.02,.59-9.4,2.86-22.69-1.24-.17-2.28-.36-2.29-2.65-.01-3.23,1.32-6.17,3.83-6.33,2.97-13.7,6.05-23.45,10.09-23.49,1.32-.02,2.37,.99,2.4,3.34,.05,3.17-2.05,8.33-3.99,19.33Z"/><path class="k" d="M792.63,855.89c-.09-6.03,5.15-17.03,8.9-17.29,2.8-.22,3.1,2.2,3.19,6.04,.06,2.55-.87,6.81-1.88,11.11-1.56,7.06-2.29,10.39-2.25,12.68,.02,1.1,.34,1.45,.9,1.36,.86-.12,3.58-3.83,7.43-13.73,1.16-.18,2.42,1.16,2.47,3.09,.19,5.92-9.16,24.58-14.94,25.65-3.68,.62-4.98-1.89-5.07-7.48-.08-4.48,.54-8.74,1.97-15.2-.53-1.87-.69-4.2-.73-6.23Zm10.54-43.51c2.4,0,5.21,4.24,5.29,7.23,.06,2.33-.98,6.13-3.75,12.12-2.36,.17-4.12-2.61-4.25-8.39-.17-8.06,.78-10.95,2.7-10.96Z"/><path class="k" d="M839.79,833.11c2.74-.43,4.13,2.15,4.22,5.28,.07,2.1-.38,5.03-1.33,8.74-.95,3.84-3.08,11.84-3.01,13.96,.03,.92,.34,1.15,.86,.95,1.06-.36,4.67-6.2,8.47-15.1,1.11-.35,2.3,.26,2.34,1.78,.12,4.42-9.56,23.24-15.01,25.81-3.49,1.44-4.77-.43-4.92-5.28-.19-5.89,2.99-17.25,2.93-19.09-.02-.69-.27-.98-.75-.86-.54,.14-2.56,2.42-4.75,7.83-.62,7.08-1.06,12.31-1.05,18.48-.57,1.11-1.1,1.75-2.36,2.18-3.38,1.15-5.76-.32-5.98-5.92-.1-3.56,.7-9.32,1.66-14,.42-2.14,.9-4.38,.87-5.3-.02-.83-.27-1.06-.76-.97-.55,.11-1.95,1.75-4.17,7.31-.64,7.43-1.04,12.89-1.04,19.39-.58,1.11-1,1.52-2.41,1.89-3.44,.92-6.09-3.7-6.3-9.58-.09-3.72,.46-8.93,1.38-13.56-.53-1.77-.71-4-.76-5.94-.14-5.8,4.53-13.47,8.26-13.85,1.75-.2,2.63,.82,2.71,3.62,.07,2.34-.26,5.65-1.56,10.88,4.07-12.6,6.99-15.46,9.63-15.86,2.28-.31,3.61,1.79,3.7,4.69,.07,2.3,.08,4.3-1.22,8.87,4.56-11.96,7.72-15.9,10.33-16.36Z"/><path class="k" d="M846.84,854.97c-.39-12.27,6.52-25.69,12.22-26.51,4.04-.77,6.28,.91,6.33,5.45,.05,5.43-2.63,10.78-10.43,16.26,.08,3.31,.65,4.94,2.87,3.9,3.87-1.82,8.71-8.34,11.9-14.98,1.35-.49,2.14,.14,2.14,1.09-.06,3.98-9.09,19.56-16.43,23.98-5.55,3.06-8.34-.61-8.6-9.2Zm10.93-18.73c-.81,.21-2.33,3.09-2.6,8.38,3.22-1.85,3.86-4.27,3.81-6.37-.03-1.48-.51-2.19-1.21-2Z"/></g></svg>