<?xml version="1.0" encoding="UTF-8"?><svg id="Laag_1" xmlns="http://www.w3.org/2000/svg" viewBox="0 0 1434.45 488.42"><defs><style>.cls-1{fill:#554b4b;}.cls-2{fill:none;stroke:#ca9e67;stroke-miterlimit:10;stroke-width:28px;}</style></defs><line class="cls-2" x1="58.96" y1="382.62" x2="1375.49" y2="166.08"/><path class="cls-1" d="M537.79,386.96c-55.15-22.96-93.07-81.67-81-100.57,8.86-13.87,39.29,2.05,53.6-14.93,20.26-24.05-17.11-84.14-8.22-89.14,7.29-4.1,27.82,38.87,53.11,36.77,26.31-2.19,30.89-50.95,57.19-53.11,22.79-1.87,30.28,33.83,61.28,36.77,27.72,2.63,39.1-24.28,54.8-19.13,32.77,10.74,32.86,144.3-5.78,158.02-20.36,7.23-40.87-22.57-61.28-12.26-18.83,9.52-8.65,38.58-28.6,57.19-29.03,27.09-90.19,2.43-95.11,.38Z"/><path class="cls-1" d="M776.45,129.15c-46.73,20.15-60.52,100.35-35.72,126.02,10.38,10.74,20.65,4.83,36.93,18.73,20.74,17.71,13.8,35.63,29.44,52.89,23,25.38,76.74,29.32,104.13,7.43,22.95-18.35,17.07-46.58,36.49-52.08,17.66-5,26.5,17.24,54.04,18.56,27.98,1.35,58.72-19.68,61.47-40.97,2.06-15.95-12.95-21.52-10.27-38.29,2.91-18.16,21.57-18.4,31.81-38.95,12.21-24.5,4.18-61.33-14.01-71.03-12.14-6.47-20.05,3.8-40.05-1.94-18.55-5.32-19.63-16.41-34.74-23.63-28.82-13.77-76.8,1.76-94.61,31.42-12.98,21.62-5.28,43.02-15.62,46.57-11.49,3.95-21.48-22.33-51.54-34.14-2.45-.96-31.46-11.92-57.74-.59Z"/><path class="cls-1" d="M1042.72,82.22c-2.44,21.31,33.03,32.86,29.63,51.02-3.7,19.8-47.89,16.97-53.27,36.98-3.18,11.83,9.18,24.28,55.75,63.96,71.41,60.84,83.82,64.99,96.45,65.54,18.66,.81,21.45-6.54,72.92-29.22,62.69-27.62,101.89-35.81,100.6-45.69-1.39-10.61-47.45-3.85-55.2-24.12-8.18-21.4,33.28-40.49,33.1-72.12-.3-52.07-113.23-100.36-125.67-84.93-9.94,12.33,41.54,68.79,36.82,72.57-3.58,2.86-28.27-33.55-77.2-55.86-37.74-17.22-61.08-12.9-66.72-11.7-17.21,3.65-45.13,15.48-47.2,33.59Z"/></svg>