<?xml version="1.0" encoding="UTF-8"?><svg id="a" xmlns="http://www.w3.org/2000/svg" xmlns:xlink="http://www.w3.org/1999/xlink" viewBox="0 0 1000 1000"><defs><style>.f{fill:none;stroke:#9e866c;stroke-miterlimit:10;stroke-width:28px;}.g{fill:#554b4b;}.h{filter:url(#b);}.i{filter:url(#d);}</style><filter id="b" filterUnits="userSpaceOnUse"><feOffset dx="-40" dy="-10"/><feGaussianBlur result="c" stdDeviation="5"/><feFlood flood-color="#765d4f" flood-opacity=".75"/><feComposite in2="c" operator="in"/><feComposite in="SourceGraphic"/></filter><filter id="d" filterUnits="userSpaceOnUse"><feOffset dx="-40" dy="-10"/><feGaussianBlur result="e" stdDeviation="5"/><feFlood flood-color="#765d4f" flood-opacity=".75"/><feComposite in2="e" operator="in"/><feComposite in="SourceGraphic"/></filter></defs><g class="h"><line class="f" x1="39.43" y1="981.09" x2="932.18" y2="23.24"/><path class="g" d="M362.58,748.6c-55.62,17.06-125.24-13.45-127.87-41.85-3.23-34.94,95.34-62.85,88.63-92.09-4.6-20.03-54.7-23.59-53.75-31.13,.97-7.7,51.93,6.29,88.48-17.9,46.47-30.75,36.65-101.41,55.67-103,16.56-1.38,41.93,50.77,44.42,105.04,2.86,62.26-22.93,158.64-95.57,180.92Z"/><path class="g" d="M457.9,367.32c-28.2,42.37,3.95,117.12,38.74,125.13,14.56,3.35,19.95-7.21,41.17-4.43,27.05,3.54,30.99,22.35,53.51,28.29,33.12,8.74,80.32-17.24,91.35-50.53,9.24-27.89-11.08-48.36,2.2-63.55,12.08-13.82,31.61,0,55.43-13.9,24.19-14.12,38.51-48.5,29.2-67.85-6.97-14.5-22.59-10.98-29.48-26.51-7.46-16.81,8.05-27.18,5.44-49.99-3.12-27.2-29.92-53.7-50.46-51.91-13.7,1.19-14.74,14.11-34.64,20.2-18.45,5.65-25.4-3.06-42.01-.88-31.66,4.17-63.43,43.34-62.19,77.92,.9,25.21,19.02,38.94,12.29,47.56-7.49,9.57-30.18-7.02-61.82-.53-2.57,.53-32.87,7.16-48.72,30.98Z"/><path class="g" d="M676.44,130.18c8.21,16.48,39.15,8.2,45.2,22.86,6.6,15.98-26.53,34.62-21.04,51.54,3.25,10,17.97,13.18,70.06,19.95,79.86,10.38,90.74,7.56,100.09,2.04,13.81-8.15,12.38-14.75,38.81-55.15,32.19-49.21,56.58-73.45,51.02-79.96-5.96-6.99-35.96,19.43-51.02,8.47-15.9-11.57,5-44.72-9.93-67.4-24.58-37.34-128.46-19.24-130.19-2.32-1.39,13.52,62.09,30.07,60.46,35-1.24,3.73-36.04-10.92-81.7-4.09-35.22,5.27-50,19.3-53.49,22.79-10.68,10.68-25.24,32.26-18.26,46.26Z"/></g><g class="i"/></svg>