<?xml version="1.0" encoding="UTF-8"?><svg id="a" xmlns="http://www.w3.org/2000/svg" xmlns:xlink="http://www.w3.org/1999/xlink" viewBox="0 0 1000 1000"><defs><style>.d{fill:#fff;}.e{fill:#93603e;}.f{fill:none;stroke:#ca9e67;stroke-miterlimit:10;stroke-width:28px;}.g{filter:url(#b);}.h{fill:#b5815a;}</style><filter id="b" filterUnits="userSpaceOnUse"><feOffset dx="-40" dy="-10"/><feGaussianBlur result="c" stdDeviation="5"/><feFlood flood-color="#765d4f" flood-opacity=".75"/><feComposite in2="c" operator="in"/><feComposite in="SourceGraphic"/></filter></defs><g class="g"><line class="f" x1="37.43" y1="981.09" x2="930.18" y2="23.24"/><path class="h" d="M360.58,748.6c-58.67,5.38-106.93-27.55-127.87-41.85-11.69-7.98-68.65-46.86-60.45-74.4,7.85-26.35,65.7-9.93,95.32-48.82,25.53-33.52-1.72-66.32,23.25-97.64,32.47-40.72,110.54-25.41,120.89-23.25,7.46,1.56,93.03,20.66,113.92,83.7,26.91,81.2-67.44,193.31-165.07,202.26Z"/><path class="h" d="M455.9,367.32c-20.54,45.79,16.61,127.43,76.72,148.79,75.63,26.87,150.13-54.98,172.04-79.05,27.55-30.27,74.41-81.74,60.45-146.47-12.47-57.8-69.82-109.36-113.92-102.29-44.43,7.11-39.81,68.04-118.57,125.54-43.77,31.96-65.18,27.73-76.72,53.47Z"/><path class="h" d="M674.44,130.18c-6.4,69.59,71.73,134.63,130.19,127.87,23.23-2.69,48.81-30.46,99.97-86.02,52.82-57.35,55.66-73.78,53.47-86.02-5.23-29.28-41.08-44.98-60.45-53.47-64.33-28.19-125.61-4.2-130.19-2.32-12.46,5.1-87.08,35.67-92.99,99.97Z"/><path class="e" d="M251.13,674.66c2.87-4.75,20.92,5.66,59.23,14.3,35.54,8.02,53.52,6.62,55.15,14.3,1.46,6.86-11.1,16.48-22.47,20.43-27.61,9.59-55.78-11.66-67.4-20.43-11.25-8.48-27.44-23.74-24.51-28.6Z"/><path class="e" d="M510.53,441.81c-1.9,22.39,26.32,47.94,49.02,46.98,11.4-.48,27.68-7.92,49.02-10.21,.74-.08,2.15-.22,4.18-.48,8.01-.99,20.84-2.59,28.5-5.65,12.43-4.98,25.37-19.49,22.47-26.55-4.59-11.19-50.35-7.24-81.7,0-21.05,4.86-33.69,10.76-40.85,4.09-10.17-9.48,2.43-33.37-4.09-36.77-5.84-3.04-25.09,11.35-26.55,28.6Z"/><path class="e" d="M708.66,184.45c3.24-9.34,18.88-13.82,30.64-12.26,11.53,1.53,24.26,9.51,26.55,20.43,3.46,16.43-17.61,35.29-18.38,34.72-.95-.69,16.04-39.41,49.02-51.06,15.13-5.35,16.18,1.17,30.64-4.09,30.3-11.01,30.28-41.28,61.28-51.06,11.58-3.66,23.39-3.16,24.51,0,2.55,7.23-53.69,20.27-65.36,59.23-4.58,15.27,2.1,19.82-4.09,32.68-10.5,21.86-41.57,33.28-67.4,30.64-39.86-4.07-73.29-42.24-67.4-59.23Z"/><path class="e" d="M396.15,672.62c-.03-13.09,18.72-17.79,55.15-42.89,37.07-25.54,51.44-43.95,55.15-40.85,4.99,4.17-18.95,39.17-32.68,59.23-32.15,46.99-43.01,49.15-49.02,49.02-13.6-.29-28.57-12.82-28.6-24.51Z"/><path class="d" d="M311.48,484.64c4-6.01,27.6-10.8,41.69-9.4,23.17,2.3,27.19,21.99,9.62,24.44-14.51,2.02-57.44-5.81-51.31-15.04Z"/><path class="d" d="M650.9,220.11c13.13-1.06,25.92,8.04,24.6,15.59-2.17,12.42-43.19,24.21-50.37,16.88-5.92-6.05,5.61-30.85,25.76-32.47Z"/><path class="d" d="M925.25,92.59c-6.38,5.67-42.37,8.46-63.6,5.89-34.94-4.24-39.93-24.24-13.2-25.21,22.06-.8,86.59,10.62,76.8,19.32Z"/></g></svg>