<?xml version="1.0" encoding="UTF-8"?><svg id="Laag_1" xmlns="http://www.w3.org/2000/svg" viewBox="0 0 1434.45 488.42"><defs><style>.cls-1{fill:#fff;}.cls-2{fill:#93603e;}.cls-3{fill:none;stroke:#ca9e67;}.cls-3,.cls-4{stroke-miterlimit:10;stroke-width:28px;}.cls-5{fill:#b5815a;}.cls-6,.cls-4{fill:#7c7474;}.cls-4{stroke:#4c3b3b;}.cls-7{opacity:.57;}</style></defs><g class="cls-7"><line class="cls-4" x1="22.6" y1="383.31" x2="1339.12" y2="166.78"/><path class="cls-6" d="M428.01,397.06c-50.67-32.2-69.08-88.81-77.07-113.38-4.46-13.72-26.18-80.54-2.42-97.64,22.74-16.36,59.17,32.91,107.28,19.99,41.46-11.13,39.91-54.56,79.56-64.27,51.55-12.62,104.98,48.35,111.98,56.54,5.04,5.9,62.16,74.6,39.75,138.45-28.87,82.25-174.77,113.91-259.09,60.33Z"/><path class="cls-6" d="M742.34,148.92c-45.08,24.14-65.97,113.12-30.79,167.78,44.26,68.77,155.32,49.16,187.98,43.39,41.07-7.25,110.92-19.59,139.97-80.48,25.94-54.38,11.79-131.68-28.17-153.45-40.26-21.93-74.47,30.08-173.81,27.41-55.2-1.48-69.84-18.22-95.18-4.65Z"/><path class="cls-6" d="M1066.27,93.76c-48.5,52.14-25.99,153.25,25.37,184.21,20.41,12.3,58.34,5.83,134.2-7.12,78.32-13.36,90.84-24.84,96.7-36.08,14.01-26.87-5.11-61.86-15.45-80.77-34.33-62.8-98.69-81.61-103.55-82.95-13.23-3.64-92.45-25.46-137.26,22.71Z"/><path class="cls-6" d="M542.51,171.46c12.65-4.03,53.28,16.37,72.8,34.65,32.12,30.07,16.28,63.02-12.73,46.24-23.94-13.86-79.49-74.71-60.07-80.89Z"/><path class="cls-6" d="M965.93,150.05c7.64-3.16,30.34,7.16,40.78,17.33,17.18,16.73,6.11,37.85-9.98,29.11-13.28-7.21-42.52-41.58-30.8-46.44Z"/><path class="cls-6" d="M1194.84,83.85c8.73-1,41.15,17.87,57.84,32.56,27.46,24.17,20.22,43.92-3.22,28.97-19.35-12.34-68.01-59.99-54.61-61.53Z"/></g><line class="cls-3" x1="58.96" y1="382.62" x2="1375.49" y2="166.08"/><path class="cls-5" d="M463.94,389.64c-50.67-32.2-69.08-88.81-77.07-113.38-4.46-13.72-26.18-80.54-2.42-97.64,22.74-16.36,59.17,32.91,107.28,19.99,41.46-11.13,39.91-54.56,79.56-64.27,51.55-12.62,104.98,48.35,111.98,56.54,5.04,5.9,62.16,74.6,39.75,138.45-28.87,82.25-174.77,113.91-259.09,60.33Z"/><path class="cls-5" d="M778.7,148.23c-45.08,24.14-65.97,113.12-30.79,167.78,44.26,68.77,155.32,49.16,187.98,43.39,41.07-7.25,110.92-19.59,139.97-80.48,25.94-54.38,11.79-131.68-28.17-153.45-40.26-21.93-74.47,30.08-173.81,27.41-55.2-1.48-69.84-18.22-95.18-4.65Z"/><path class="cls-5" d="M1102.63,93.07c-48.5,52.14-25.99,153.25,25.37,184.21,20.41,12.3,58.34,5.83,134.2-7.12,78.32-13.36,90.84-24.84,96.7-36.08,14.01-26.87-5.11-61.86-15.45-80.77-34.33-62.8-98.69-81.61-103.55-82.95-13.23-3.64-92.45-25.46-137.26,22.71Z"/><path class="cls-1" d="M578.87,170.77c12.65-4.03,53.28,16.37,72.8,34.65,32.12,30.07,16.28,63.02-12.73,46.24-23.94-13.86-79.49-74.71-60.07-80.89Z"/><path class="cls-1" d="M1002.29,149.35c7.64-3.16,30.34,7.16,40.78,17.33,17.18,16.73,6.11,37.85-9.98,29.11-13.28-7.21-42.52-41.58-30.8-46.44Z"/><path class="cls-1" d="M1231.2,83.16c8.73-1,41.15,17.87,57.84,32.56,27.46,24.17,20.22,43.92-3.22,28.97-19.35-12.34-68.01-59.99-54.61-61.53Z"/><path class="cls-2" d="M445.27,284.16c5.12-2.15,13.57,16.9,39.42,46.47,23.98,27.42,39.33,36.9,36.12,44.06-2.87,6.4-18.68,6.77-30.19,3.26-27.96-8.53-38.19-42.3-42.41-56.23-4.08-13.48-8.17-35.35-2.94-37.55Z"/><path class="cls-2" d="M792.07,248.98c-14.73,16.97-7,54.24,11.91,66.85,9.49,6.33,27.03,9.92,45.62,20.65,.65,.37,1.87,1.09,3.66,2.08,7.05,3.92,18.36,10.2,26.35,12.23,12.98,3.31,31.98-.79,33.8-8.21,2.89-11.75-36.4-35.53-66-48.16-19.87-8.48-33.56-11.16-35.41-20.78-2.63-13.65,21.64-25.52,18.37-32.11-2.92-5.9-26.96-5.62-38.31,7.45Z"/><path class="cls-2" d="M1103.82,157.87c8.12-5.64,23.4-.03,31.97,8.16,8.41,8.03,13.98,21.98,9.41,32.15-6.89,15.31-35.03,18.13-35.32,17.21-.36-1.12,36.19-22.38,69.7-12.35,15.38,4.6,12.38,10.48,27.16,14.76,30.96,8.96,48.79-15.49,79.6-5.13,11.51,3.87,20.76,11.23,19.8,14.45-2.2,7.35-55.31-15.27-87.72,9.32-12.7,9.64-9.99,17.25-22.56,23.99-21.37,11.46-53.2,2.37-72.51-14.98-29.8-26.79-34.31-77.32-19.53-87.58Z"/><path class="cls-2" d="M563.62,368c7.7-10.59,25.61-3.34,69.83-2.14,45,1.22,67.46-5.19,68.63-.49,1.57,6.31-38.39,20.47-61.32,28.58-53.67,19.01-63.71,14.35-68.5,10.7-10.82-8.25-15.52-27.2-8.65-36.66Z"/></svg>