<?xml version="1.0" encoding="UTF-8"?><svg id="a" xmlns="http://www.w3.org/2000/svg" viewBox="0 0 1000 1000"><defs><style>.b{fill:#b7b7b7;}.c{fill:#c6b691;}.d{fill:#b7a686;}.e{fill:#333;}.f{fill:#d8d8d3;}</style></defs><path class="c" d="M337.01,544.98c47.96-23.13,89.84-38.85,109.56-45.48,102.6-34.5,133.58-.55,219.13-33.08,5.39-2.05,114.18-44.23,109.56-82.69-7.89-65.78-344.11-92.84-419.65-14.47-8.87,9.2-30.28,36.6-70.29,57.88-32.93,17.52-45.8,13.52-59.95,28.94-31.43,34.23-22.24,113,10.34,128.17,18.78,8.74,36.22-7.9,101.3-39.28Z"/><path class="d" d="M368.4,392.01c89.35,51.75,140.89-5.13,311.7,6.2,50.64,3.36,86.23,11.02,93.89-6.2,9.62-21.63-31.45-67.61-60.09-90.96-138.66-113.02-399.17-32.09-403.16,32.04-1.53,24.63,34.85,45.7,57.66,58.92Z"/><ellipse class="b" cx="543.08" cy="315.52" rx="433.49" ry="70.29"/><ellipse class="f" cx="543.08" cy="305.18" rx="433.49" ry="59.95"/><path class="e" d="M23.43,755.44c97.97-39.48,195.93-78.95,293.9-118.43-29.08-68.38-58.15-136.76-87.23-205.13-68.89,22.05-137.78,44.1-206.67,66.15v257.42Z"/><ellipse class="b" cx="541.76" cy="299.35" rx="390.62" ry="41.71"/></svg>