<?xml version="1.0" encoding="UTF-8"?><svg id="Laag_1" xmlns="http://www.w3.org/2000/svg" viewBox="0 0 1434.45 488.42"><defs><style>.cls-1{fill:#fff;}.cls-2{fill:none;stroke:#ca9e67;}.cls-2,.cls-3{stroke-miterlimit:10;stroke-width:28px;}.cls-4,.cls-3{fill:#7c7474;}.cls-3{stroke:#4c3b3b;}.cls-5{opacity:.57;}.cls-6{fill:#eabbbc;}</style></defs><g class="cls-5"><line class="cls-3" x1="27.14" y1="396.27" x2="1343.66" y2="179.73"/><path class="cls-4" d="M432.55,410.02c-50.67-32.2-69.08-88.81-77.07-113.38-4.46-13.72-26.18-80.54-2.42-97.64,22.74-16.36,59.17,32.91,107.28,19.99,41.46-11.13,39.91-54.56,79.56-64.27,51.55-12.62,104.98,48.35,111.98,56.54,5.04,5.9,62.16,74.6,39.75,138.45-28.87,82.25-174.77,113.91-259.09,60.33Z"/><path class="cls-4" d="M746.88,161.87c-45.08,24.14-65.97,113.12-30.79,167.78,44.26,68.77,155.32,49.16,187.98,43.39,41.07-7.25,110.92-19.59,139.97-80.48,25.94-54.38,11.79-131.68-28.17-153.45-40.26-21.93-74.47,30.08-173.81,27.41-55.2-1.48-69.84-18.22-95.18-4.65Z"/><path class="cls-4" d="M1070.81,106.72c-48.5,52.14-25.99,153.25,25.37,184.21,20.41,12.3,58.34,5.83,134.2-7.12,78.32-13.36,90.84-24.84,96.7-36.08,14.01-26.87-5.11-61.86-15.45-80.77-34.33-62.8-98.69-81.61-103.55-82.95-13.23-3.64-92.45-25.46-137.26,22.71Z"/><path class="cls-4" d="M547.05,184.41c12.65-4.03,53.28,16.37,72.8,34.65,32.12,30.07,16.28,63.02-12.73,46.24-23.94-13.86-79.49-74.71-60.07-80.89Z"/><path class="cls-4" d="M970.47,163c7.64-3.16,30.34,7.16,40.78,17.33,17.18,16.73,6.11,37.85-9.98,29.11-13.28-7.21-42.52-41.58-30.8-46.44Z"/><path class="cls-4" d="M1199.38,96.81c8.73-1,41.15,17.87,57.84,32.56,27.46,24.17,20.22,43.92-3.22,28.97-19.35-12.34-68.01-59.99-54.61-61.53Z"/></g><line class="cls-2" x1="58.96" y1="382.62" x2="1375.49" y2="166.08"/><path class="cls-6" d="M463.94,389.64c-50.67-32.2-69.08-88.81-77.07-113.38-4.46-13.72-26.18-80.54-2.42-97.64,22.74-16.36,59.17,32.91,107.28,19.99,41.46-11.13,39.91-54.56,79.56-64.27,51.55-12.62,104.98,48.35,111.98,56.54,5.04,5.9,62.16,74.6,39.75,138.45-28.87,82.25-174.77,113.91-259.09,60.33Z"/><path class="cls-6" d="M778.7,148.23c-45.08,24.14-65.97,113.12-30.79,167.78,44.26,68.77,155.32,49.16,187.98,43.39,41.07-7.25,110.92-19.59,139.97-80.48,25.94-54.38,11.79-131.68-28.17-153.45-40.26-21.93-74.47,30.08-173.81,27.41-55.2-1.48-69.84-18.22-95.18-4.65Z"/><path class="cls-6" d="M1102.63,93.07c-48.5,52.14-25.99,153.25,25.37,184.21,20.41,12.3,58.34,5.83,134.2-7.12,78.32-13.36,90.84-24.84,96.7-36.08,14.01-26.87-5.11-61.86-15.45-80.77-34.33-62.8-98.69-81.61-103.55-82.95-13.23-3.64-92.45-25.46-137.26,22.71Z"/><path class="cls-1" d="M578.87,170.77c12.65-4.03,53.28,16.37,72.8,34.65,32.12,30.07,16.28,63.02-12.73,46.24-23.94-13.86-79.49-74.71-60.07-80.89Z"/><path class="cls-1" d="M1002.29,149.35c7.64-3.16,30.34,7.16,40.78,17.33,17.18,16.73,6.11,37.85-9.98,29.11-13.28-7.21-42.52-41.58-30.8-46.44Z"/><path class="cls-1" d="M1231.2,83.16c8.73-1,41.15,17.87,57.84,32.56,27.46,24.17,20.22,43.92-3.22,28.97-19.35-12.34-68.01-59.99-54.61-61.53Z"/></svg>