<?xml version="1.0" encoding="UTF-8"?><svg id="a" xmlns="http://www.w3.org/2000/svg" xmlns:xlink="http://www.w3.org/1999/xlink" viewBox="0 0 1000 1000"><defs><style>.f{fill:#fff;}.g{fill:none;stroke:#ca9e67;stroke-miterlimit:10;stroke-width:28px;}.h{filter:url(#b);}.i{filter:url(#d);}.j{fill:#eabbbc;}</style><filter id="b" filterUnits="userSpaceOnUse"><feOffset dx="-40" dy="-10"/><feGaussianBlur result="c" stdDeviation="5"/><feFlood flood-color="#765d4f" flood-opacity=".75"/><feComposite in2="c" operator="in"/><feComposite in="SourceGraphic"/></filter><filter id="d" filterUnits="userSpaceOnUse"><feOffset dx="40" dy="-10"/><feGaussianBlur result="e" stdDeviation="5"/><feFlood flood-color="#765d4f" flood-opacity=".75"/><feComposite in2="e" operator="in"/><feComposite in="SourceGraphic"/></filter></defs><g class="h"/><g><g class="i"><line class="g" x1="39.43" y1="981.09" x2="932.18" y2="23.24"/><path class="j" d="M362.58,748.6c-58.67,5.38-106.93-27.55-127.87-41.85-11.69-7.98-68.65-46.86-60.45-74.4,7.85-26.35,65.7-9.93,95.32-48.82,25.53-33.52-1.72-66.32,23.25-97.64,32.47-40.72,110.54-25.41,120.89-23.25,7.46,1.56,93.03,20.66,113.92,83.7,26.91,81.2-67.44,193.31-165.07,202.26Z"/><path class="j" d="M457.9,367.32c-20.54,45.79,16.61,127.43,76.72,148.79,75.63,26.87,150.13-54.98,172.04-79.05,27.55-30.27,74.41-81.74,60.45-146.47-12.47-57.8-69.82-109.36-113.92-102.29-44.43,7.11-39.81,68.04-118.57,125.54-43.77,31.96-65.18,27.73-76.72,53.47Z"/><path class="j" d="M676.44,130.18c-6.4,69.59,71.73,134.63,130.19,127.87,23.23-2.69,48.81-30.46,99.97-86.02,52.82-57.35,55.66-73.78,53.47-86.02-5.23-29.28-41.08-44.98-60.45-53.47-64.33-28.19-125.61-4.2-130.19-2.32-12.46,5.1-87.08,35.67-92.99,99.97Z"/></g><path class="f" d="M316.2,504.68c7.41-10.72,51.21-19.24,77.33-16.75,42.99,4.1,50.45,39.19,17.85,43.55-26.91,3.6-106.56-10.35-95.18-26.8Z"/><path class="f" d="M632.26,234.09c4.03-7.04,27.86-12.63,42.07-11,23.38,2.69,27.44,25.74,9.71,28.6-14.64,2.36-57.97-6.8-51.78-17.6Z"/><path class="f" d="M770.36,45.37c6.18-6.01,42.68-10.8,64.45-9.4,35.83,2.3,42.05,21.99,14.87,24.44-22.43,2.02-88.81-5.81-79.33-15.04Z"/></g></svg>