<?xml version="1.0" encoding="UTF-8"?><svg id="Laag_1" xmlns="http://www.w3.org/2000/svg" viewBox="0 0 1434.45 488.42"><defs><style>.cls-1{fill:#fff;}.cls-2{fill:none;stroke:#ca9e67;}.cls-2,.cls-3{stroke-miterlimit:10;stroke-width:28px;}.cls-4,.cls-3{fill:#7c7474;}.cls-3{stroke:#4c3b3b;}.cls-5{opacity:.57;}.cls-6{fill:#efd8d8;}.cls-7{fill:#eabbbc;}</style></defs><g class="cls-5"><line class="cls-3" x1="22.6" y1="383.31" x2="1339.12" y2="166.78"/><path class="cls-4" d="M428.01,397.06c-50.67-32.2-69.08-88.81-77.07-113.38-4.46-13.72-26.18-80.54-2.42-97.64,22.74-16.36,59.17,32.91,107.28,19.99,41.46-11.13,39.91-54.56,79.56-64.27,51.55-12.62,104.98,48.35,111.98,56.54,5.04,5.9,62.16,74.6,39.75,138.45-28.87,82.25-174.77,113.91-259.09,60.33Z"/><path class="cls-4" d="M742.34,148.92c-45.08,24.14-65.97,113.12-30.79,167.78,44.26,68.77,155.32,49.16,187.98,43.39,41.07-7.25,110.92-19.59,139.97-80.48,25.94-54.38,11.79-131.68-28.17-153.45-40.26-21.93-74.47,30.08-173.81,27.41-55.2-1.48-69.84-18.22-95.18-4.65Z"/><path class="cls-4" d="M1066.27,93.76c-48.5,52.14-25.99,153.25,25.37,184.21,20.41,12.3,58.34,5.83,134.2-7.12,78.32-13.36,90.84-24.84,96.7-36.08,14.01-26.87-5.11-61.86-15.45-80.77-34.33-62.8-98.69-81.61-103.55-82.95-13.23-3.64-92.45-25.46-137.26,22.71Z"/><path class="cls-4" d="M542.51,171.46c12.65-4.03,53.28,16.37,72.8,34.65,32.12,30.07,16.28,63.02-12.73,46.24-23.94-13.86-79.49-74.71-60.07-80.89Z"/><path class="cls-4" d="M965.93,150.05c7.64-3.16,30.34,7.16,40.78,17.33,17.18,16.73,6.11,37.85-9.98,29.11-13.28-7.21-42.52-41.58-30.8-46.44Z"/><path class="cls-4" d="M1194.84,83.85c8.73-1,41.15,17.87,57.84,32.56,27.46,24.17,20.22,43.92-3.22,28.97-19.35-12.34-68.01-59.99-54.61-61.53Z"/></g><line class="cls-2" x1="58.96" y1="382.62" x2="1375.49" y2="166.08"/><path class="cls-7" d="M463.94,389.64c-50.67-32.2-69.08-88.81-77.07-113.38-4.46-13.72-26.18-80.54-2.42-97.64,22.74-16.36,59.17,32.91,107.28,19.99,41.46-11.13,39.91-54.56,79.56-64.27,51.55-12.62,104.98,48.35,111.98,56.54,5.04,5.9,62.16,74.6,39.75,138.45-28.87,82.25-174.77,113.91-259.09,60.33Z"/><path class="cls-7" d="M778.7,148.23c-45.08,24.14-65.97,113.12-30.79,167.78,44.26,68.77,155.32,49.16,187.98,43.39,41.07-7.25,110.92-19.59,139.97-80.48,25.94-54.38,11.79-131.68-28.17-153.45-40.26-21.93-74.47,30.08-173.81,27.41-55.2-1.48-69.84-18.22-95.18-4.65Z"/><path class="cls-7" d="M1102.63,93.07c-48.5,52.14-25.99,153.25,25.37,184.21,20.41,12.3,58.34,5.83,134.2-7.12,78.32-13.36,90.84-24.84,96.7-36.08,14.01-26.87-5.11-61.86-15.45-80.77-34.33-62.8-98.69-81.61-103.55-82.95-13.23-3.64-92.45-25.46-137.26,22.71Z"/><path class="cls-1" d="M578.87,170.77c12.65-4.03,53.28,16.37,72.8,34.65,32.12,30.07,16.28,63.02-12.73,46.24-23.94-13.86-79.49-74.71-60.07-80.89Z"/><path class="cls-1" d="M1002.29,149.35c7.64-3.16,30.34,7.16,40.78,17.33,17.18,16.73,6.11,37.85-9.98,29.11-13.28-7.21-42.52-41.58-30.8-46.44Z"/><path class="cls-1" d="M1231.2,83.16c8.73-1,41.15,17.87,57.84,32.56,27.46,24.17,20.22,43.92-3.22,28.97-19.35-12.34-68.01-59.99-54.61-61.53Z"/><path class="cls-6" d="M445.64,318.15c-11.23,1.02-23.35,18.49-22.09,33.71,2.89,34.78,75.83,58.9,126.46,64.34,13.75,1.48,104.97,11.27,152.99-43.91,5.62-6.46,30.91-35.53,21.45-59.23-4.01-10.05-14.5-19.7-23.49-18.38-8.4,1.23-11.32,11.43-25.53,39.83-13.18,26.33-19.9,39.57-26.55,42.89-17.14,8.57-28.06-9.48-62.3-8.17-25.25,.96-27.08,11.06-48.81,9.19-23.63-2.03-41.4-15.67-50.25-22.47-26.12-20.06-29.73-38.89-41.87-37.79Z"/><path class="cls-6" d="M745.09,304.68c-2.64,2.85,7.6,19.58,20.9,32.03,39.65,37.11,103.36,33.14,140.44,27.2,8.19-.83,84.17-8.98,125.84-36.32,14.85-9.74,26.42-22.62,28.17-24.6,11.59-13.05,20.53-23.12,20.65-37.11,.15-16.5-12.03-33.72-20.43-32.68-7.23,.9-5.98,13.99-17.36,30.64-.95,1.4-21.66,30.84-52.08,33.7-23.83,2.24-32.32-13.82-48-7.15-15.74,6.7-10.76,24.4-27.57,34.72-21.65,13.3-54.83-.76-60.26-3.06-20.72-8.78-29.94-21.68-39.83-17.36-7.94,3.47-5.58,13.34-13.28,18.38-16.92,11.08-52.94-22.96-57.19-18.38Z"/><path class="cls-6" d="M1099.63,249.25c-2.51,7.16,16.62,22.5,34.45,30.95,31.38,14.87,50.11,4.31,165.21-17.28,27.04-5.07,45.23-8.09,56.43-23.9,15.07-21.27,8.86-53.52,2.43-54.77-6.61-1.29-7.75,31.33-31.96,44.02-22.29,11.69-36.19-7.76-65.36,0-34.39,9.15-37.21,44.19-62.3,42.89-17.94-.93-20.25-15.29-51.06-23.49-20.12-5.35-45.28-5.7-47.84,1.57Z"/></svg>