<?xml version="1.0" encoding="UTF-8"?><svg id="a" xmlns="http://www.w3.org/2000/svg" xmlns:xlink="http://www.w3.org/1999/xlink" viewBox="0 0 1000 1000"><defs><style>.g{fill:#fff;}.h{fill:none;stroke:#ca9e67;stroke-miterlimit:10;stroke-width:28px;}.i{filter:url(#b);}.j{fill:url(#f);}.k{fill:url(#d);}.l{fill:url(#e);}.m{fill:#e0c1ad;}</style><filter id="b" filterUnits="userSpaceOnUse"><feOffset dx="-40" dy="-10"/><feGaussianBlur result="c" stdDeviation="5"/><feFlood flood-color="#765d4f" flood-opacity=".75"/><feComposite in2="c" operator="in"/><feComposite in="SourceGraphic"/></filter><linearGradient id="d" x1="267.94" y1="510.27" x2="462.74" y2="705.07" gradientTransform="matrix(1, 0, 0, 1, 0, 0)" gradientUnits="userSpaceOnUse"><stop offset=".47" stop-color="#eabbbc"/><stop offset="1" stop-color="#e8c7a3"/></linearGradient><linearGradient id="e" x1="613.92" y1="357.96" x2="881.02" y2="599.38" gradientTransform="matrix(1, 0, 0, 1, 0, 0)" gradientUnits="userSpaceOnUse"><stop offset="0" stop-color="#eabbbc"/><stop offset="1" stop-color="#ca9e67"/></linearGradient><linearGradient id="f" x1="733.32" y1="43.48" x2="885.7" y2="195.87" gradientTransform="matrix(1, 0, 0, 1, 0, 0)" gradientUnits="userSpaceOnUse"><stop offset=".46" stop-color="#eabbbc"/><stop offset="1" stop-color="#ca9e67"/></linearGradient></defs><g class="i"><line class="h" x1="39.43" y1="981.09" x2="932.18" y2="23.24"/><path class="k" d="M305.63,742.64c-32.1-9.39-57.29-26.59-70.91-35.89-11.69-7.98-68.65-46.86-60.45-74.4,7.85-26.35,65.7-9.93,95.32-48.82,25.53-33.52-1.72-66.32,23.25-97.64,32.47-40.72,110.54-25.41,120.89-23.25,7.46,1.56,93.03,20.66,113.92,83.7,26.91,81.2-67.44,193.31-165.07,202.26-20.5,1.88-39.72-.91-56.95-5.96"/><path class="l" d="M457.9,367.32c-20.54,45.79,16.61,127.43,76.72,148.79,75.63,26.87,150.13-54.98,172.04-79.05,27.55-30.27,74.41-81.74,60.45-146.47-12.47-57.8-69.82-109.36-113.92-102.29-44.43,7.11-39.81,68.04-118.57,125.54-43.77,31.96-65.18,27.73-76.72,53.47Z"/><path class="j" d="M676.44,130.18c-6.4,69.59,71.73,134.63,130.19,127.87,23.23-2.69,48.81-30.46,99.97-86.02,52.82-57.35,55.66-73.78,53.47-86.02-5.23-29.28-41.08-44.98-60.45-53.47-64.33-28.19-125.61-4.2-130.19-2.32-12.46,5.1-87.08,35.67-92.99,99.97Z"/><path class="g" d="M316.2,504.68c7.41-10.72,51.21-19.24,77.33-16.75,42.99,4.1,50.45,39.19,17.85,43.55-26.91,3.6-106.56-10.35-95.18-26.8Z"/><path class="g" d="M632.26,234.09c4.03-7.04,27.86-12.63,42.07-11,23.38,2.69,27.44,25.74,9.71,28.6-14.64,2.36-57.97-6.8-51.78-17.6Z"/><path class="g" d="M770.36,45.37c6.18-6.01,42.68-10.8,64.45-9.4,35.83,2.3,42.05,21.99,14.87,24.44-22.43,2.02-88.81-5.81-79.33-15.04Z"/><path class="m" d="M500.38,506.66c2.69-1.55,26.39,22.42,33.5,54.2,9.36,41.82-14.14,78.76-28.27,100.96-8.77,13.79-48.66,76.49-120.4,89.27-40,7.13-83.35-2.44-83.76-9.57-.2-3.41,9.42-6.58,21.99-10.63,31.85-10.26,57.65-12.26,62.82-12.75,43.5-4.12,85.29-38.91,106.79-73.33,4.82-7.72,29.59-47.37,21.99-93.52-4.23-25.69-16.85-43.37-14.66-44.64Z"/><path class="m" d="M747.07,244.24c25.53,27.6,23.13,68.7,22.2,79.12-3.67,41.34-25.83,69.74-46.78,95.88-22.98,28.68-85.85,107.14-161,101.02-24.24-1.98-52.51-12.98-51.91-17.26,.36-2.54,10.77-2.41,26.77-4.24,0,0,26.92-3.08,57.01-12.19,36.03-10.9,59.91-28,81.55-43.48,24.39-17.45,28.81-25.23,31.05-30.41,6.83-15.82,.98-25.24,4.69-48.22,3.64-22.57,10.78-22.72,17.3-45.3,12.59-43.65-3.54-79.64,5.86-83.08,4.17-1.53,9.95,4.6,13.26,8.18Z"/><path class="m" d="M923.13,43.89c8.47-3.69,32.59,16.66,36.95,42.12,3.76,22-8.63,39.57-30.86,70.09-26.3,36.12-51.84,55.28-82.82,78.53-18.83,14.13-27.22,18.5-37.69,20.85-33.99,7.62-67.33-11.08-66.38-15.32,.68-3.02,16.11,4.03,34.72-4.09,17.59-7.66,16.43-19.45,37.79-32.68,13.46-8.34,14.83-4.23,30.64-13.28,12.98-7.43,30.26-17.32,35.74-34.72,5.39-17.1-6.29-23.43,0-37.79,7.06-16.12,21.94-13.2,32.68-30.64,12.32-20.02,1.7-39.8,9.23-43.09Z"/></g></svg>